<svg width="21" height="22" viewBox="0 0 21 22" fill="none" xmlns="http://www.w3.org/2000/svg">
<path d="M12.3509 11.4195L20.5998 3.17024C20.725 3.04932 20.8249 2.90467 20.8936 2.74474C20.9623 2.58481 20.9984 2.4128 21 2.23875C21.0015 2.0647 20.9683 1.89208 20.9024 1.73098C20.8365 1.56988 20.7391 1.42352 20.6161 1.30044C20.493 1.17736 20.3466 1.08003 20.1855 1.01412C20.0244 0.948208 19.8518 0.915041 19.6778 0.916553C19.5037 0.918066 19.3317 0.954228 19.1718 1.02293C19.0118 1.09163 18.8672 1.19149 18.7463 1.31669L10.497 9.56557L2.24817 1.31669C2.00144 1.07538 1.66949 0.941105 1.32438 0.943006C0.979266 0.944906 0.648824 1.08283 0.404766 1.32684C0.160708 1.57086 0.0227271 1.90128 0.0207655 2.24639C0.0188038 2.5915 0.153021 2.92347 0.394289 3.17024L8.6435 11.4195L0.394289 19.6687C0.270338 19.7899 0.171668 19.9345 0.103991 20.0941C0.0363139 20.2538 0.000974692 20.4252 1.98797e-05 20.5986C-0.000934933 20.772 0.0325137 20.9438 0.0984285 21.1042C0.164343 21.2645 0.261414 21.4102 0.384022 21.5328C0.50663 21.6554 0.652339 21.7524 0.81271 21.8183C0.973082 21.8842 1.14493 21.9176 1.31831 21.9166C1.49168 21.9157 1.66314 21.8803 1.82275 21.8126C1.98236 21.7449 2.12696 21.6462 2.24817 21.5222L10.497 13.2733L18.7463 21.5222C19.0022 21.7782 19.3378 21.9063 19.673 21.9063C20.0083 21.9063 20.3442 21.7782 20.5998 21.5222C20.8456 21.2764 20.9836 20.943 20.9836 20.5954C20.9836 20.2478 20.8456 19.9145 20.5998 19.6687L12.3509 11.4195Z" fill="#EF0000"/>
</svg>
