<svg width="505" height="505" viewBox="0 0 505 505" fill="none" xmlns="http://www.w3.org/2000/svg">
<mask id="mask0_1539_79" style="mask-type:alpha" maskUnits="userSpaceOnUse" x="0" y="0" width="505" height="505">
<circle cx="252.5" cy="252.5" r="252.5" fill="#D9D9D9"/>
</mask>
<g mask="url(#mask0_1539_79)">
<path d="M-68 0.00390625H556V505H-68V0.00390625Z" fill="#F0F0F0"/>
<path d="M283 0H205V205.151H-68V299.837H205V504.988H283V299.837H556V205.151H283V0Z" fill="#D80027"/>
<path d="M411.926 340.318L556 437.483V340.318H411.926ZM311.826 340.318L556 504.988V458.423L380.874 340.318H311.826ZM490.96 504.988L311.826 384.169V504.988H490.96Z" fill="#0052B4"/>
<path d="M311.826 340.318L556 504.988V458.423L380.874 340.318H311.826Z" fill="#F0F0F0"/>
<path d="M311.826 340.318L556 504.988V458.423L380.874 340.318H311.826Z" fill="#D80027"/>
<path d="M42.103 340.315L-68 414.569V340.315H42.103ZM176.174 361.255V504.987H-36.9329L176.174 361.255Z" fill="#0052B4"/>
<path d="M107.126 340.318L-68 458.423V504.988L176.174 340.318H107.126Z" fill="#D80027"/>
<path d="M76.0744 164.67L-68 67.505V164.67H76.0744ZM176.174 164.67L-68 0V46.5647L107.126 164.67H176.174ZM-2.96023 0L176.174 120.819V0H-2.96023Z" fill="#0052B4"/>
<path d="M176.174 164.67L-68 0V46.5647L107.126 164.67H176.174Z" fill="#F0F0F0"/>
<path d="M176.174 164.67L-68 0V46.5647L107.126 164.67H176.174Z" fill="#D80027"/>
<path d="M445.897 164.673L556 90.4184V164.673H445.897ZM311.826 143.732V0.000976562H524.933L311.826 143.732Z" fill="#0052B4"/>
<path d="M380.874 164.67L556 46.5647V0L311.826 164.67H380.874Z" fill="#D80027"/>
</g>
</svg>
