<svg width="505" height="505" viewBox="0 0 505 505" fill="none" xmlns="http://www.w3.org/2000/svg">
<path d="M252.496 505C391.946 505 504.992 391.952 504.992 252.5C504.992 113.048 391.946 0 252.496 0C113.046 0 0 113.048 0 252.5C0 391.952 113.046 505 252.496 505Z" fill="#E6E6E6"/>
<path d="M252.501 0.00012811C200.066 -0.0241348 148.938 16.3677 106.291 46.876C71.6377 95.4644 55.3339 154.766 60.2774 214.241C65.2208 273.716 91.0913 329.512 133.291 371.712C175.491 413.913 231.286 439.784 290.76 444.727C350.234 449.671 409.535 433.367 458.122 398.713C485.036 360.974 501.031 316.548 504.351 270.314C507.671 224.08 498.188 177.825 476.942 136.628C455.696 95.4312 423.509 60.8848 383.916 36.7824C344.323 12.6799 298.854 -0.0465804 252.501 0.00012811Z" fill="white"/>
<path d="M252.508 0C223.645 0.0538462 195.006 5.07826 167.848 14.8529H337.169C310.01 5.07826 281.372 0.0538462 252.508 0Z" fill="#DD1F2D"/>
<path d="M7.31055 311.912C12.221 332.585 19.7424 352.549 29.6936 371.323H475.275C485.237 352.551 492.768 332.586 497.688 311.912H7.31055Z" fill="#C1272D"/>
<path d="M497.67 193.088H7.32239C2.52932 212.531 0.0711771 232.475 0 252.5H504.992C504.921 232.475 502.463 212.531 497.67 193.088ZM431.323 74.2646H73.6695C56.189 91.8127 41.3767 111.83 29.7054 133.676H475.287C463.616 111.83 448.803 91.8127 431.323 74.2646Z" fill="#DD1F2D"/>
<path d="M167.85 490.147H337.171C372.595 477.599 404.771 457.301 431.352 430.735H73.6836C100.261 457.3 132.431 477.597 167.85 490.147Z" fill="#C1272D"/>
<path d="M252.496 0C185.53 0 121.307 26.6026 73.9544 73.9555C26.6022 121.308 0 185.533 0 252.5H252.496V0Z" fill="#063990"/>
<path d="M222.791 193.088H193.086V222.794H222.791V193.088Z" fill="white"/>
<path d="M163.379 193.088H133.674V222.794H163.379V193.088Z" fill="white"/>
<path d="M103.969 193.088H74.2637V222.794H103.969V193.088Z" fill="white"/>
<path d="M44.5589 193.088H14.8535V222.794H44.5589V193.088Z" fill="white"/>
<path d="M252.496 148.529H222.791V178.235H252.496V148.529Z" fill="white"/>
<path d="M193.084 148.529H163.379V178.235H193.084V148.529Z" fill="white"/>
<path d="M133.674 148.529H103.969V178.235H133.674V148.529Z" fill="white"/>
<path d="M74.264 148.529H44.5586V178.235H74.264V148.529Z" fill="white"/>
<path d="M222.791 103.971H193.086V133.677H222.791V103.971Z" fill="white"/>
<path d="M163.379 103.971H133.674V133.677H163.379V103.971Z" fill="white"/>
<path d="M103.969 103.971H74.2637V133.677H103.969V103.971Z" fill="white"/>
<path d="M252.496 59.4116H222.791V89.1175H252.496V59.4116Z" fill="white"/>
<path d="M193.084 59.4116H163.379V89.1175H193.084V59.4116Z" fill="white"/>
<path d="M133.674 59.4116H103.969V89.1175H133.674V59.4116Z" fill="white"/>
<path d="M222.791 14.853H193.086V44.5589H222.791V14.853Z" fill="white"/>
<path d="M44.5578 133.675V109.405C39.1539 117.209 34.1951 125.311 29.7051 133.675H44.5578ZM133.674 29.704V44.5569H163.38V16.4849C153.203 20.2456 143.28 24.6612 133.674 29.704Z" fill="white"/>
<path d="M311.908 445.588C340.774 445.566 369.418 440.54 396.568 430.735H227.247C254.406 440.51 283.044 445.534 311.908 445.588ZM133.081 371.323H474.946C485.095 352.578 492.806 332.612 497.894 311.912H89.1172C100.788 333.758 115.601 353.775 133.081 371.323Z" fill="#DD1F2D"/>
</svg>
